<?xml version="1.0" standalone="no"?><!DOCTYPE svg PUBLIC "-//W3C//DTD SVG 1.1//EN" "http://www.w3.org/Graphics/SVG/1.1/DTD/svg11.dtd"><svg t="1745217397912" class="icon" viewBox="0 0 1024 1024" version="1.1" xmlns="http://www.w3.org/2000/svg" p-id="1642" xmlns:xlink="http://www.w3.org/1999/xlink" width="200" height="200"><path d="M372.736 1003.52h299.008c24.576 0 45.056-20.48 45.056-45.056v-110.592H778.24c24.576 0 45.056-20.48 45.056-45.056v-73.728h86.016c12.288 0 28.672-8.192 36.864-16.384 8.192-12.288 12.288-24.576 4.096-40.96l-81.92-253.952C864.256 200.704 684.032 24.576 466.944 24.576 245.76 24.576 65.536 204.8 65.536 425.984c0 135.168 65.536 258.048 176.128 331.776 53.248 36.864 86.016 90.112 86.016 151.552v53.248c4.096 20.48 20.48 40.96 45.056 40.96zM315.392 557.056l-24.576-24.576c-12.288-12.288-12.288-28.672-4.096-40.96l12.288-16.384c-8.192-12.288-12.288-24.576-16.384-36.864l-20.48-4.096c-16.384-4.096-24.576-16.384-24.576-32.768V368.64c0-16.384 12.288-28.672 24.576-32.768l20.48-4.096c4.096-12.288 8.192-24.576 16.384-36.864L286.72 278.528c-8.192-12.288-4.096-28.672 4.096-40.96l24.576-24.576c12.288-8.192 28.672-12.288 40.96-4.096l16.384 12.288c12.288-8.192 24.576-12.288 36.864-16.384l4.096-20.48c4.096-16.384 16.384-24.576 32.768-24.576h36.864c16.384 0 28.672 12.288 32.768 24.576l4.096 20.48c12.288 4.096 24.576 8.192 32.768 12.288l16.384-12.288c12.288-8.192 28.672-4.096 40.96 4.096l24.576 24.576c12.288 12.288 12.288 28.672 4.096 40.96l-12.288 16.384c4.096 12.288 12.288 24.576 12.288 36.864l20.48 4.096c16.384 4.096 24.576 16.384 24.576 32.768v32.768c0 16.384-12.288 28.672-24.576 32.768l-20.48 4.096c-4.096 12.288-8.192 24.576-12.288 32.768l12.288 16.384c8.192 12.288 4.096 28.672-4.096 40.96l-24.576 24.576c-12.288 12.288-28.672 12.288-40.96 4.096l-16.384-12.288c-12.288 4.096-20.48 12.288-32.768 16.384l-4.096 20.48c-4.096 16.384-16.384 24.576-32.768 24.576h-36.864c-16.384 0-28.672-12.288-32.768-24.576l-4.096-12.288c-12.288-4.096-24.576-8.192-32.768-16.384l-16.384 12.288c-16.384 8.192-32.768 8.192-45.056-4.096z" p-id="1643" fill="#d4237a"></path><path d="M462.848 479.232c53.248 0 94.208-40.96 94.208-94.208 0-53.248-40.96-94.208-94.208-94.208C409.6 290.816 368.64 331.776 368.64 385.024c0 53.248 45.056 94.208 94.208 94.208z" p-id="1644" fill="#d4237a"></path></svg>